<svg xmlns="http://www.w3.org/2000/svg" viewBox="0 0 100 100" width="100%" height="100%">
  <g transform="translate(0, -2)">
    <g fill="#7d7d8c">
      <path d="M 30,65 C 10,75 5,90 20,95 C 25,97 30,95 32,90 C 35,80 35,75 40,70 Z" />
      <path d="M 70,65 C 90,75 95,90 80,95 C 75,97 70,95 68,90 C 65,80 65,75 60,70 Z" />
      <path d="M 45,75 C 45,90 40,98 50,98 C 60,98 55,90 55,75 Z" />
    </g>

    <g fill="#8d8d96">
      <path d="M 40,70 C 25,85 20,95 35,98 C 40,99 45,95 45,90 C 45,85 45,80 48,75 Z" />
      <path d="M 60,70 C 75,85 80,95 65,98 C 60,99 55,95 55,90 C 55,85 55,80 52,75 Z" />
    </g>

    <polygon points="50,15 75,25 85,50 75,75 50,85 25,75 15,50 25,25" 
             fill="#8d8d96" 
             stroke="#8d8d96" 
             stroke-width="4" 
             stroke-linejoin="round" />

    <circle cx="35" cy="48" r="6" fill="#e1e1eb" />
    <circle cx="65" cy="48" r="6" fill="#e1e1eb" />
  </g>
</svg>
