<svg xmlns="http://www.w3.org/2000/svg" viewBox="-14 -35 653 424" width="653" height="424" style="background-color: #1A1A2E">
  <text x="312" y="-5" text-anchor="middle" fill="#C0C0C0" font-family="'JetBrains Mono', 'Fira Code', 'Cascadia Code', 'SF Mono', monospace" font-size="18" font-weight="600">Octovia Render Pipeline</text>
  <path id="edge-0" d="M 130 100 L 140 100 L 150 100 L 160 100 L 170 100 L 180 100 L 190 100 L 200 100 L 210 100 L 220 100 L 230 100 L 240 100 L 250 100 L 260 100 L 270 100" fill="none" stroke="#4A90D9" stroke-width="2.5" stroke-linecap="round" stroke-linejoin="round" />
  <path id="edge-1" d="M 330 100 L 340 100 L 350 100 L 360 100 L 370 100 L 380 100 L 390 100 L 400 100 L 410 100 L 420 100 L 430 100 L 440 100 L 450 100 L 460 100 L 470 100" fill="none" stroke="#4A90D9" stroke-width="2.5" stroke-linecap="round" stroke-linejoin="round" />
  <path id="edge-2" d="M 530 100 L 520 100 L 510 100 L 500 100 L 490 100 L 480 100 L 470 100" fill="none" stroke="#4A90D9" stroke-width="2.5" stroke-linecap="round" stroke-linejoin="round" />
  <path id="edge-3" d="M 530 250 L 520 250 L 510 250 L 500 250 L 490 250 L 480 250 L 470 250 L 460 250 L 450 250 L 440 250 L 430 250 L 420 250 L 410 250 L 400 250 L 390 250 L 380 250 L 370 250 L 360 250 L 350 250 L 340 250 L 330 250 L 320 250 L 310 250 L 300 250 L 290 250 L 280 250 L 270 250" fill="none" stroke="#4A90D9" stroke-width="2.5" stroke-linecap="round" stroke-linejoin="round" />
  <path id="edge-4" d="M 330 250 L 320 250 L 310 250 L 300 250 L 290 250 L 280 250 L 270 250 L 260 250 L 250 250 L 240 250 L 230 250 L 220 250 L 210 250 L 200 250 L 190 250 L 180 250 L 170 250 L 160 250 L 150 250 L 140 250 L 130 250 L 120 250 L 110 250 L 100 250 L 90 250 L 80 250 L 70 250" fill="none" stroke="#4A90D9" stroke-width="2.5" stroke-linecap="round" stroke-linejoin="round" />
  <text id="elabel-0" x="200" y="88" text-anchor="middle" dominant-baseline="central" fill="#E0E0E0" font-family="'JetBrains Mono', 'Fira Code', 'Cascadia Code', 'SF Mono', monospace" font-size="12" opacity="0.7">text_extents</text>
  <text id="elabel-1" x="400" y="88" text-anchor="middle" dominant-baseline="central" fill="#E0E0E0" font-family="'JetBrains Mono', 'Fira Code', 'Cascadia Code', 'SF Mono', monospace" font-size="12" opacity="0.7">node_size</text>
  <text id="elabel-2" x="500" y="88" text-anchor="middle" dominant-baseline="central" fill="#E0E0E0" font-family="'JetBrains Mono', 'Fira Code', 'Cascadia Code', 'SF Mono', monospace" font-size="12" opacity="0.7">positions</text>
  <text id="elabel-3" x="400" y="238" text-anchor="middle" dominant-baseline="central" fill="#E0E0E0" font-family="'JetBrains Mono', 'Fira Code', 'Cascadia Code', 'SF Mono', monospace" font-size="12" opacity="0.7">routes</text>
  <text id="elabel-4" x="200" y="238" text-anchor="middle" dominant-baseline="central" fill="#E0E0E0" font-family="'JetBrains Mono', 'Fira Code', 'Cascadia Code', 'SF Mono', monospace" font-size="12" opacity="0.7">anchors</text>
  <rect id="node-Parse" x="67" y="72" width="71" height="60" rx="8" ry="8" fill="#16213E" stroke="#4A90D9" stroke-width="2.0"/>
  <text id="label-Parse" x="102" y="102" text-anchor="middle" dominant-baseline="central" fill="#E0E0E0" font-family="'JetBrains Mono', 'Fira Code', 'Cascadia Code', 'SF Mono', monospace" font-size="13">Parse</text>
  <rect id="node-Label_Placement" x="225" y="222" width="155" height="60" rx="8" ry="8" fill="#16213E" stroke="#4A90D9" stroke-width="2.0"/>
  <text id="label-Label_Placement" x="302" y="252" text-anchor="middle" dominant-baseline="central" fill="#E0E0E0" font-family="'JetBrains Mono', 'Fira Code', 'Cascadia Code', 'SF Mono', monospace" font-size="13">Label_Placement</text>
  <rect id="node-Measure" x="259" y="72" width="87" height="60" rx="8" ry="8" fill="#16213E" stroke="#4A90D9" stroke-width="2.0"/>
  <text id="label-Measure" x="302" y="102" text-anchor="middle" dominant-baseline="central" fill="#E0E0E0" font-family="'JetBrains Mono', 'Fira Code', 'Cascadia Code', 'SF Mono', monospace" font-size="13">Measure</text>
  <rect id="node-SVG_Output" x="46" y="222" width="113" height="60" rx="8" ry="8" fill="#16213E" stroke="#4A90D9" stroke-width="2.0"/>
  <text id="label-SVG_Output" x="102" y="252" text-anchor="middle" dominant-baseline="central" fill="#E0E0E0" font-family="'JetBrains Mono', 'Fira Code', 'Cascadia Code', 'SF Mono', monospace" font-size="13">SVG_Output</text>
  <rect id="node-Edge_Routing" x="438" y="222" width="129" height="60" rx="8" ry="8" fill="#16213E" stroke="#4A90D9" stroke-width="2.0"/>
  <text id="label-Edge_Routing" x="502" y="252" text-anchor="middle" dominant-baseline="central" fill="#E0E0E0" font-family="'JetBrains Mono', 'Fira Code', 'Cascadia Code', 'SF Mono', monospace" font-size="13">Edge_Routing</text>
  <rect id="node-Backbone_Layout" x="425" y="72" width="155" height="60" rx="8" ry="8" fill="#16213E" stroke="#4A90D9" stroke-width="2.0"/>
  <text id="label-Backbone_Layout" x="502" y="102" text-anchor="middle" dominant-baseline="central" fill="#E0E0E0" font-family="'JetBrains Mono', 'Fira Code', 'Cascadia Code', 'SF Mono', monospace" font-size="13">Backbone_Layout</text>
</svg>